Coordinates
version=1
nRows=21
nColumns=33
inDegrees=yes

Units are S.I. units (second, meters, Newtons, ...)
Angles are in degrees.

endheader
time	ground_thorax_rot_x	ground_thorax_rot_y	ground_thorax_rot_z	ground_thorax_tx	ground_thorax_ty	ground_thorax_tz	clav_prot_r	clav_elev_r	scapula_abduction_r	scapula_elevation_r	scapula_upward_rot_r	scapula_winging_r	shoulder_elv_r	plane_of_elev_r	axial_rot_r	elbow_flexion_r	pro_sup_r	wrist_flex_r	wrist_dev_r	clav_prot_l	clav_elev_l	scapula_abduction_l	scapula_elevation_l	scapula_upward_rot_l	scapula_winging_l	shoulder_elv_l	plane_of_elev_l	axial_rot_l	elbow_flexion_l	pro_sup_l	wrist_flex_l	wrist_dev_l
      3.06000000	    -40.46045242	    -10.32908437	      9.18058872	   -145.21896343	    801.00084676	      5.93973460	      8.95637734	    -45.00000000	     43.03720391	    -45.00000000	    -30.66867020	   2785.50203476	  -2988.87079392	    148.11056120	   -114.05010290	   1102.67004011	    199.40310079	      8.95383222	      4.25718890	     18.00210819	     41.65400896	    -43.52570918	    -45.00000000	    -34.95090411	  -1358.35587752	   -652.10155199	     28.13752281	      0.19708948	    727.57532903	     19.50131293	     12.11057561	    -19.49258655
      3.07000000	    -40.47959939	    -10.15912063	      8.92729957	   -140.15665403	    798.51999205	      6.02674518	      8.98563780	    -45.00000000	     43.34240068	    -45.00000000	    -29.62464684	   2785.85904880	  -2989.33405124	    148.18560679	   -113.68612295	   1102.38290715	    201.09917325	      8.78975215	      4.04967758	     18.09622046	     41.90553804	    -43.84123812	    -45.00000000	    -34.28485205	  -1358.66049208	   -652.38962168	     28.10554517	      0.50677639	    727.36162498	     20.71811289	     12.14273609	    -19.46903681
      3.08000000	    -40.52674721	     -9.46792547	      8.08325045	   -135.18097218	    796.08173768	      6.12662714	      9.00760271	    -45.00000000	     44.01299952	    -45.00000000	    -27.74295305	   2786.12126006	  -2989.89794477	    148.29107738	   -113.00000164	   1101.95974405	    203.61926901	      8.51663654	      3.64504315	     18.34742133	     42.27288524	    -44.19223530	    -45.00000000	    -33.27479993	  -1359.14894017	   -652.56079980	     28.17642271	      1.56540667	    727.05223706	     22.19429884	     12.20162796	    -19.45967570
      3.09000000	    -40.46355953	     -9.85594213	      8.40766925	   -130.31198975	    793.69693492	      6.23347788	      8.96794576	    -45.00000000	     44.26014772	    -45.00000000	    -27.61908100	   2786.60882804	  -2990.18069900	    148.51869553	   -112.45256200	   1101.71116184	    205.38847700	      8.44685247	      3.89623232	     18.49973667	     42.30221721	    -44.41634203	    -45.00000000	    -33.38831615	  -1359.18634060	   -653.03894881	     28.43105195	      1.51812755	    726.71143886	     23.46851390	     12.22333066	    -19.44448682
      3.10000000	    -40.45947013	     -9.61269602	      8.07361272	   -125.58006521	    791.38114223	      6.34118869	      9.00357288	    -45.00000000	     44.70120725	    -45.00000000	    -26.73012083	   2787.01346707	  -2990.57935830	    148.65370371	   -112.01338037	   1101.34431278	    207.43098999	      8.23661791	      3.71021842	     18.82751858	     42.52854329	    -44.71987214	    -45.00000000	    -32.96508447	  -1359.48362323	   -653.31651437	     28.59524893	      2.11374681	    726.35718151	     24.64001073	     12.24738860	    -19.39466038
      3.11000000	    -40.42058687	     -9.63516941	      8.05068865	   -121.00780351	    789.15430792	      6.44649778	      9.02923604	    -45.00000000	     45.00000000	    -45.00000000	    -26.18181612	   2787.36796221	  -2990.99582887	    148.78575697	   -111.34347656	   1101.04052298	    209.39686610	      8.09819940	      3.75216630	     18.86931644	     42.64329567	    -44.99702804	    -45.00000000	    -32.72387265	  -1359.61476456	   -653.66119444	     28.80706998	      2.60437424	    726.01585495	     25.76556567	     12.34620759	    -19.36394497
      3.12000000	    -40.39002879	     -9.23896299	      7.67026619	   -116.61767751	    787.03547534	      6.54698896	      8.99927215	    -45.00000000	     45.00000000	    -45.00000000	    -24.95318248	   2787.83150559	  -2991.40444779	    149.01439375	   -110.43014378	   1100.60223891	    211.72456807	      7.81862153	      3.50243819	     18.89076901	     42.86668442	    -45.00000000	    -44.95324230	    -31.61384394	  -1360.19346488	   -653.89185714	     28.68838298	      3.38669561	    725.62593334	     26.87536319	     12.41813735	    -19.31875149
      3.13000000	    -40.30586575	     -8.65089629	      6.99705153	   -112.42161962	    785.04020689	      6.64198016	      8.64795840	    -45.00000000	     45.00000000	    -45.00000000	    -23.78531933	   2788.35444918	  -2991.69966591	    149.04450299	   -109.30417835	   1100.03656702	    215.06206866	      7.42688051	      3.25213085	     18.54773847	     43.06241093	    -45.00000000	    -44.48411971	    -29.92739626	  -1360.51478556	   -653.78052439	     28.52637528	      4.23570420	    725.15207548	     28.21540397	     12.56090001	    -19.31885497
      3.14000000	    -40.05327469	     -8.18076631	      6.37614822	   -108.43531123	    783.18610093	      6.73080124	      7.93224482	    -45.00000000	     45.00000000	    -45.00000000	    -21.84056520	   2788.65998419	  -2992.09081625	    149.39801851	   -106.75298902	   1098.75091116	    225.26773719	      6.95397627	      4.38282592	     16.68110941	     42.74037680	    -45.00000000	    -43.61122403	    -27.42127372	  -1359.76116577	   -654.52784836	     28.82308691	      4.68489585	    724.48850123	     30.84826198	     12.92425074	    -19.55243020
      3.15000000	    -39.84213702	     -9.00800521	      7.36149466	   -104.67227370	    781.48718016	      6.81373095	      8.63938474	    -45.00000000	     45.00000000	    -45.00000000	    -23.14130526	   2789.15533098	  -2992.19032445	    149.54372672	   -106.89922092	   1098.29098062	    228.40325096	      6.54400499	      4.31459179	     18.23341982	     42.33340474	    -45.00000000	    -43.68673096	    -29.16163994	  -1360.45481093	   -654.35660853	     28.90670793	      4.59813165	    724.36924764	     31.09762827	     12.57373748	    -19.40845796
      3.16000000	    -39.67638111	     -9.11944365	      7.55986487	   -101.14312870	    779.95624527	      6.88989683	      8.73137303	    -45.00000000	     45.00000000	    -45.00000000	    -23.28119834	   2789.39483105	  -2992.49334576	    149.47545047	   -106.43258941	   1097.71263145	    231.59148858	      6.29237376	      4.45409747	     17.98595915	     42.00634906	    -45.00000000	    -43.45031196	    -28.97065634	  -1360.62101639	   -654.53817056	     29.04270247	      4.79796028	    723.94497733	     31.58627385	     12.69681824	    -19.30991488
      3.17000000	    -39.49458754	     -8.92613033	      7.35318054	    -97.86038434	    778.60760564	      6.95777793	      8.56788378	    -45.00000000	     45.00000000	    -45.00000000	    -22.45359772	   2789.73916306	  -2992.75729702	    149.67964563	   -105.89334342	   1097.11985591	    235.57528998	      5.91001290	      4.63963316	     17.95234447	     41.97955031	    -45.00000000	    -42.98492219	    -28.19050690	  -1360.71829283	   -654.57202255	     29.08238886	      4.99675671	    723.50761263	     32.27352675	     12.71663359	    -19.24032687
      3.18000000	    -39.29099591	     -8.45421790	      6.89035431	    -94.83608641	    777.45403831	      7.01457241	      8.32923581	    -45.00000000	     45.00000000	    -45.00000000	    -21.42361650	   2790.08881488	  -2991.65873126	    147.54907728	   -145.16843976	   1089.45277457	    378.42704286	     16.37124771	     14.09840229	     17.15505140	     42.03450618	    -45.00000000	    -42.31121889	    -26.28499490	  -1360.81816650	   -654.47726779	     28.68588712	      6.07857859	    723.29252993	     36.03569292	     12.41813485	    -19.69774105
      3.19000000	    -39.07177074	     -9.01176101	      7.61351100	    -92.07910221	    776.50263211	      7.05839916	      8.37246528	    -45.00000000	     45.00000000	    -45.00000000	    -22.35706094	   2790.11037141	  -2991.94078150	    147.23130628	   -145.43862081	   1089.06331540	    378.60870544	     16.27390760	     14.26589568	     17.05603601	     41.72240661	    -45.00000000	    -42.14806621	    -27.45977643	  -1360.96408987	   -654.45582908	     28.97845811	      5.82027962	    723.06428130	     35.58310769	     12.50057810	    -19.48386763
      3.20000000	    -38.89972487	     -9.03502720	      7.74813580	    -89.60076455	    775.75350681	      7.08568147	      8.37412714	    -45.00000000	     45.00000000	    -45.00000000	    -22.28525775	   2790.39050232	  -2992.07621004	    147.25852063	   -145.84085770	   1088.72042667	    378.97971071	     16.17394972	     14.48236832	     17.15212259	     41.64010362	    -45.00000000	    -41.89650712	    -27.40355081	  -1361.20322174	   -654.42931188	     28.93000553	      5.84063277	    722.84826822	     35.43678739	     12.51345274	    -19.34405229
      3.21000000	    -38.72172817	     -8.98984164	      7.78220829	    -87.40633861	    775.20436239	      7.09308992	      8.24261021	    -45.00000000	     45.00000000	    -45.00000000	    -22.04505318	   2790.68459181	  -2992.12214818	    147.32671582	   -146.12814558	   1088.47584458	    379.50355052	     16.12188412	     14.70273355	     17.04773967	     41.52557579	    -45.00000000	    -41.59806305	    -27.09485232	  -1361.37860150	   -654.42221873	     28.77206754	      5.82127345	    722.71695266	     35.52424397	     12.48735645	    -19.26235705
      3.22000000	    -38.64699586	     -8.80667111	      7.66594606	    -85.50903126	    774.84741971	      7.07656244	      8.12001032	    -45.00000000	     45.00000000	    -45.00000000	    -21.49384245	   2790.92010967	  -2992.33166227	    147.45583339	   -146.45753316	   1088.23192914	    380.11510751	     16.10599968	     14.84886881	     17.02998647	     41.44514933	    -45.00000000	    -41.43481151	    -26.61237618	  -1361.49045365	   -654.49788574	     28.72639069	      5.69867547	    722.53695451	     35.73691640	     12.44937951	    -19.21930808
      3.23000000	    -38.53216276	     -8.68510678	      7.68412164	    -83.91067597	    774.66727835	      7.03190229	      7.98330555	    -45.00000000	     45.00000000	    -45.00000000	    -20.97199005	   2791.15323094	  -2992.37466118	    147.67239848	   -146.73138053	   1088.01117319	    380.74200975	     16.10018791	     14.99529915	     16.98422609	     41.34488050	    -45.00000000	    -41.29927095	    -26.16803782	  -1361.65420156	   -654.62669496	     28.51763690	      5.60075514	    722.47975826	     35.95329556	     12.37147962	    -19.20741433
      3.24000000	    -38.56825932	     -8.54627939	      7.64959898	    -82.61117179	    774.64002820	      6.95337916	      7.90330255	    -45.00000000	     45.00000000	    -45.00000000	    -20.51973150	   2791.29178638	  -2992.60499884	    147.80875044	   -146.97745802	   1087.75356996	    381.37065298	     16.10638279	     15.07013665	     16.92470762	     41.33281419	    -45.00000000	    -41.27165001	    -25.83354518	  -1361.73133059	   -654.69615551	     28.42908321	      5.45184739	    722.37457694	     36.16695976	     12.30558646	    -19.21529737
      3.25000000	    -38.58800574	     -8.38171445	      7.54177136	    -81.61783007	    774.74583439	      6.83831807	      7.92697258	    -45.00000000	     45.00000000	    -45.00000000	    -20.02293155	   2791.38795316	  -2992.81890690	    147.82045327	   -147.19909744	   1087.46714196	    381.97711695	     16.11033451	     15.13309435	     16.85526819	     41.36694070	    -45.00000000	    -41.24186107	    -25.56703924	  -1361.80288819	   -654.64462882	     28.38606156	      5.27427673	    722.21252185	     36.35442470	     12.23746406	    -19.21851883
      3.26000000	    -38.57799359	     -8.10429652	      7.39696576	    -80.91759903	    774.96433126	      6.68177092	      7.73958482	    -45.00000000	     45.00000000	    -45.00000000	    -19.79231514	   2791.55510254	  -2992.73599495	    147.84169200	   -147.30381080	   1087.34016211	    382.58261539	     16.15682871	     15.16272477	     16.83572197	     41.49784099	    -45.00000000	    -41.23754579	    -25.27279385	  -1361.81960214	   -654.67436212	     28.45394257	      5.14093633	    722.22998694	     36.48254526	     12.15840857	    -19.26919432
